<svg xmlns="http://www.w3.org/2000/svg" xmlns="http://www.w3.org/2000/svg" viewBox="0 0 200 270" width="50" height="64" fill="none" aria-hidden="true">
<g stroke="#F2F0EC" stroke-width="7" stroke-linejoin="round" stroke-linecap="round">
  <path d="M100 150 L79 20 Q68 25 72 42 L88 152 Z" fill="none"/>
  <path d="M100 150 L121 20 Q132 25 128 42 L112 152 Z" fill="none"/>
  <path d="M105 160 C120 184 138 194 142 208" fill="none" stroke-width="9"/>
  <path d="M95 160 C80 184 62 194 58 208" fill="none" stroke-width="9"/>
  <ellipse cx="150" cy="232" rx="21" ry="26" transform="rotate(16 150 232)" stroke-width="9"/>
  <ellipse cx="50" cy="232" rx="21" ry="26" transform="rotate(-16 50 232)" stroke-width="9"/>
</g>
<circle cx="100" cy="153" r="13" fill="#E4571E"/>
<circle cx="100" cy="153" r="4.5" fill="#0C0C0D"/>
<path d="M79 22 L86 60" stroke="#E4571E" stroke-width="4" stroke-linecap="round"/>
<path d="M121 22 L114 60" stroke="#E4571E" stroke-width="4" stroke-linecap="round"/>
</svg>