<svg xmlns="http://www.w3.org/2000/svg" viewBox="0 0 560 720" width="560" height="720" fill="none" aria-hidden="true" preserveAspectRatio="xMidYMid slice">
<defs>
  <clipPath id="af"><rect width="560" height="720"/></clipPath>
  <linearGradient id="ag" x1="0" y1="0" x2=".3" y2="1">
    <stop offset="0" stop-color="#F9F4EC"/>
    <stop offset="1" stop-color="#E4C4B2" stop-opacity=".55"/>
  </linearGradient>
</defs>
<g clip-path="url(#af)">
  <rect width="560" height="720" fill="url(#ag)"/>
  <circle cx="150" cy="620" r="90" stroke="#E4C4B2" stroke-width="1.6" opacity="0.50"/><circle cx="150" cy="620" r="146" stroke="#C4714B" stroke-width="1.6" opacity="0.45"/><circle cx="150" cy="620" r="202" stroke="#2E5A46" stroke-width="1.6" opacity="0.39"/><circle cx="150" cy="620" r="258" stroke="#E4C4B2" stroke-width="1.6" opacity="0.33"/><circle cx="150" cy="620" r="314" stroke="#C4714B" stroke-width="1.6" opacity="0.28"/><circle cx="150" cy="620" r="370" stroke="#2E5A46" stroke-width="1.6" opacity="0.22"/><circle cx="150" cy="620" r="426" stroke="#E4C4B2" stroke-width="1.6" opacity="0.17"/>
  <g fill="#2E5A46" opacity=".22"><circle cx="344" cy="523" r="3.1"/><circle cx="510" cy="522" r="3.4"/><circle cx="35" cy="334" r="3.5"/><circle cx="357" cy="632" r="1.5"/><circle cx="264" cy="185" r="2.5"/><circle cx="318" cy="25" r="1.7"/><circle cx="165" cy="643" r="3.0"/><circle cx="103" cy="561" r="1.5"/><circle cx="341" cy="103" r="1.2"/><circle cx="473" cy="159" r="1.7"/><circle cx="531" cy="613" r="1.9"/><circle cx="520" cy="385" r="2.8"/><circle cx="126" cy="660" r="2.9"/><circle cx="523" cy="627" r="1.9"/><circle cx="208" cy="130" r="1.5"/><circle cx="54" cy="222" r="2.6"/><circle cx="22" cy="480" r="2.0"/><circle cx="181" cy="576" r="2.4"/><circle cx="184" cy="345" r="2.9"/><circle cx="50" cy="683" r="1.3"/><circle cx="410" cy="594" r="1.2"/><circle cx="430" cy="266" r="2.6"/><circle cx="25" cy="48" r="1.6"/><circle cx="517" cy="150" r="3.0"/><circle cx="503" cy="660" r="2.0"/><circle cx="204" cy="375" r="3.1"/><circle cx="76" cy="528" r="3.1"/><circle cx="467" cy="41" r="3.5"/><circle cx="67" cy="249" r="2.7"/><circle cx="497" cy="249" r="3.4"/><circle cx="303" cy="230" r="2.0"/><circle cx="112" cy="69" r="1.6"/><circle cx="378" cy="698" r="1.6"/><circle cx="45" cy="691" r="2.5"/><circle cx="231" cy="178" r="2.6"/><circle cx="450" cy="328" r="2.2"/><circle cx="49" cy="643" r="1.3"/><circle cx="277" cy="589" r="1.5"/><circle cx="400" cy="666" r="2.7"/><circle cx="430" cy="89" r="2.2"/><circle cx="98" cy="594" r="1.9"/><circle cx="256" cy="700" r="3.2"/><circle cx="528" cy="326" r="2.4"/><circle cx="399" cy="344" r="1.9"/><circle cx="230" cy="116" r="2.1"/><circle cx="534" cy="673" r="2.7"/><circle cx="280" cy="248" r="1.4"/><circle cx="162" cy="551" r="3.3"/><circle cx="208" cy="554" r="3.1"/><circle cx="381" cy="470" r="3.0"/><circle cx="209" cy="498" r="1.9"/><circle cx="273" cy="543" r="2.9"/><circle cx="173" cy="663" r="2.8"/><circle cx="322" cy="24" r="2.5"/><circle cx="150" cy="475" r="2.3"/><circle cx="445" cy="459" r="3.1"/><circle cx="201" cy="457" r="3.0"/><circle cx="451" cy="255" r="3.2"/><circle cx="472" cy="487" r="3.5"/><circle cx="517" cy="370" r="2.5"/><circle cx="106" cy="588" r="3.4"/><circle cx="268" cy="489" r="2.9"/><circle cx="400" cy="134" r="3.1"/><circle cx="322" cy="471" r="2.2"/><circle cx="344" cy="546" r="2.7"/><circle cx="395" cy="35" r="1.6"/><circle cx="249" cy="461" r="1.7"/><circle cx="377" cy="448" r="1.3"/><circle cx="265" cy="171" r="1.3"/><circle cx="89" cy="233" r="1.6"/></g>
  <path d="M0 470 C150 396 250 520 380 452 C450 416 510 430 560 404 L560 720 L0 720 Z"
        fill="#2E5A46" opacity=".1"/>
  <g transform="translate(180 96) scale(1.5)">
    <path d="M132 22 C92 22 62 52 62 96 C62 112 54 118 46 128 C40 136 44 146 54 148
             L70 151 L70 172 C70 186 80 196 96 196 L142 196"
          stroke="#2E5A46" stroke-width="5" stroke-linecap="round" stroke-linejoin="round"/>
    <path d="M92 90 C98 84 110 84 116 90" stroke="#2E5A46" stroke-width="4.6" stroke-linecap="round"/>
    <path d="M78 166 C88 174 104 176 116 170" stroke="#2E5A46" stroke-width="4.6" stroke-linecap="round"/>
    <circle cx="150" cy="112" r="28" stroke="#C4714B" stroke-width="4.6" opacity=".75"/>
    <circle cx="150" cy="112" r="4.5" fill="#C4714B"/>
  </g>
</g>
</svg>