<svg xmlns="http://www.w3.org/2000/svg" viewBox="0 0 1100 470" width="100%" height="auto" preserveAspectRatio="xMidYMax meet" aria-hidden="true"><path d="M409.0,470 A141.0,141.0 0 0 1 691.0,470" fill="none" stroke="#B85C35" stroke-width="1.40" stroke-opacity="0.85"/><path d="M359.6,470 A190.3,190.3 0 0 1 740.4,470" fill="none" stroke="#B85C35" stroke-width="1.32" stroke-opacity="0.76"/><path d="M310.3,470 A239.7,239.7 0 0 1 789.7,470" fill="none" stroke="#B85C35" stroke-width="1.24" stroke-opacity="0.67"/><path d="M260.9,470 A289.1,289.1 0 0 1 839.0,470" fill="none" stroke="#B85C35" stroke-width="1.16" stroke-opacity="0.58"/><path d="M211.6,470 A338.4,338.4 0 0 1 888.4,470" fill="none" stroke="#B85C35" stroke-width="1.08" stroke-opacity="0.49"/><path d="M162.2,470 A387.8,387.8 0 0 1 937.8,470" fill="none" stroke="#B85C35" stroke-width="1.00" stroke-opacity="0.40"/><path d="M112.9,470 A437.1,437.1 0 0 1 987.1,470" fill="none" stroke="#B85C35" stroke-width="0.92" stroke-opacity="0.31"/><path d="M63.6,470 A486.4,486.4 0 0 1 1036.5,470" fill="none" stroke="#B85C35" stroke-width="0.84" stroke-opacity="0.22"/><path d="M14.2,470 A535.8,535.8 0 0 1 1085.8,470" fill="none" stroke="#B85C35" stroke-width="0.76" stroke-opacity="0.13"/><path d="M-35.1,470 A585.1,585.1 0 0 1 1135.2,470" fill="none" stroke="#B85C35" stroke-width="0.68" stroke-opacity="0.04"/></svg>